<mxfile host="app.diagrams.net" modified="2021-06-21T18:14:12.650Z" agent="5.0 (Windows NT 10.0; Win64; x64) AppleWebKit/537.36 (KHTML, like Gecko) Chrome/91.0.4472.106 Safari/537.36" etag="zdWXw78ucui122jPU5Co" version="14.8.0" type="github">
  <diagram id="6CdzCUz8HcLEYqCQVTEM" name="Page-1">
    <mxGraphModel dx="2132" dy="944" grid="0" gridSize="10" guides="1" tooltips="1" connect="1" arrows="1" fold="1" page="0" pageScale="1" pageWidth="1654" pageHeight="1169" math="0" shadow="0">
      <root>
        <mxCell id="0" />
        <mxCell id="1" parent="0" />
        <mxCell id="gmRt4qrbImgZVtuVfAIw-1" value="" style="whiteSpace=wrap;html=1;aspect=fixed;" parent="1" vertex="1">
          <mxGeometry x="1478" y="347" width="349" height="349" as="geometry" />
        </mxCell>
        <mxCell id="cUqwhZdn4gUKvGzjcZQ_-3" value="&lt;font style=&quot;font-size: 18px&quot;&gt;order_detail.csv&lt;/font&gt;" style="shape=image;html=1;verticalAlign=top;verticalLabelPosition=bottom;labelBackgroundColor=#ffffff;imageAspect=0;aspect=fixed;image=https://cdn3.iconfinder.com/data/icons/file-extension-vol-1/48/csv_file_database_extension_data-128.png" parent="1" vertex="1">
          <mxGeometry x="212" y="148" width="128" height="128" as="geometry" />
        </mxCell>
        <mxCell id="cUqwhZdn4gUKvGzjcZQ_-4" value="&lt;font style=&quot;font-size: 18px&quot;&gt;restaurant_detail.csv&lt;/font&gt;" style="shape=image;html=1;verticalAlign=top;verticalLabelPosition=bottom;labelBackgroundColor=#ffffff;imageAspect=0;aspect=fixed;image=https://cdn3.iconfinder.com/data/icons/file-extension-vol-1/48/csv_file_database_extension_data-128.png" parent="1" vertex="1">
          <mxGeometry x="212" y="524" width="128" height="128" as="geometry" />
        </mxCell>
        <mxCell id="cUqwhZdn4gUKvGzjcZQ_-90" style="edgeStyle=orthogonalEdgeStyle;rounded=0;orthogonalLoop=1;jettySize=auto;html=1;" parent="1" source="cUqwhZdn4gUKvGzjcZQ_-25" target="cUqwhZdn4gUKvGzjcZQ_-89" edge="1">
          <mxGeometry relative="1" as="geometry">
            <Array as="points">
              <mxPoint x="790" y="345" />
              <mxPoint x="790" y="520" />
            </Array>
          </mxGeometry>
        </mxCell>
        <mxCell id="cUqwhZdn4gUKvGzjcZQ_-25" value="order_detail" style="shape=table;startSize=30;container=1;collapsible=1;childLayout=tableLayout;fixedRows=1;rowLines=0;fontStyle=1;align=center;resizeLast=1;" parent="1" vertex="1">
          <mxGeometry x="370" y="148" width="300" height="310" as="geometry">
            <mxRectangle x="400" y="190" width="100" height="30" as="alternateBounds" />
          </mxGeometry>
        </mxCell>
        <mxCell id="cUqwhZdn4gUKvGzjcZQ_-26" value="" style="shape=partialRectangle;collapsible=0;dropTarget=0;pointerEvents=0;fillColor=none;top=0;left=0;bottom=0;right=0;points=[[0,0.5],[1,0.5]];portConstraint=eastwest;" parent="cUqwhZdn4gUKvGzjcZQ_-25" vertex="1">
          <mxGeometry y="30" width="300" height="30" as="geometry" />
        </mxCell>
        <mxCell id="cUqwhZdn4gUKvGzjcZQ_-27" value="order_created_timestamp" style="shape=partialRectangle;connectable=0;fillColor=none;top=0;left=0;bottom=0;right=0;fontStyle=0;overflow=hidden;" parent="cUqwhZdn4gUKvGzjcZQ_-26" vertex="1">
          <mxGeometry width="220" height="30" as="geometry" />
        </mxCell>
        <mxCell id="cUqwhZdn4gUKvGzjcZQ_-28" value="timestamp" style="shape=partialRectangle;connectable=0;fillColor=none;top=0;left=0;bottom=0;right=0;align=left;spacingLeft=6;fontStyle=0;overflow=hidden;" parent="cUqwhZdn4gUKvGzjcZQ_-26" vertex="1">
          <mxGeometry x="220" width="80" height="30" as="geometry" />
        </mxCell>
        <mxCell id="cUqwhZdn4gUKvGzjcZQ_-32" value="" style="shape=partialRectangle;collapsible=0;dropTarget=0;pointerEvents=0;fillColor=none;top=0;left=0;bottom=0;right=0;points=[[0,0.5],[1,0.5]];portConstraint=eastwest;" parent="cUqwhZdn4gUKvGzjcZQ_-25" vertex="1">
          <mxGeometry y="60" width="300" height="30" as="geometry" />
        </mxCell>
        <mxCell id="cUqwhZdn4gUKvGzjcZQ_-33" value="status" style="shape=partialRectangle;connectable=0;fillColor=none;top=0;left=0;bottom=0;right=0;editable=1;overflow=hidden;" parent="cUqwhZdn4gUKvGzjcZQ_-32" vertex="1">
          <mxGeometry width="220" height="30" as="geometry" />
        </mxCell>
        <mxCell id="cUqwhZdn4gUKvGzjcZQ_-34" value="string" style="shape=partialRectangle;connectable=0;fillColor=none;top=0;left=0;bottom=0;right=0;align=left;spacingLeft=6;overflow=hidden;" parent="cUqwhZdn4gUKvGzjcZQ_-32" vertex="1">
          <mxGeometry x="220" width="80" height="30" as="geometry" />
        </mxCell>
        <mxCell id="cUqwhZdn4gUKvGzjcZQ_-35" value="" style="shape=partialRectangle;collapsible=0;dropTarget=0;pointerEvents=0;fillColor=none;top=0;left=0;bottom=0;right=0;points=[[0,0.5],[1,0.5]];portConstraint=eastwest;" parent="cUqwhZdn4gUKvGzjcZQ_-25" vertex="1">
          <mxGeometry y="90" width="300" height="30" as="geometry" />
        </mxCell>
        <mxCell id="cUqwhZdn4gUKvGzjcZQ_-36" value="price" style="shape=partialRectangle;connectable=0;fillColor=none;top=0;left=0;bottom=0;right=0;editable=1;overflow=hidden;" parent="cUqwhZdn4gUKvGzjcZQ_-35" vertex="1">
          <mxGeometry width="220" height="30" as="geometry" />
        </mxCell>
        <mxCell id="cUqwhZdn4gUKvGzjcZQ_-37" value="integer" style="shape=partialRectangle;connectable=0;fillColor=none;top=0;left=0;bottom=0;right=0;align=left;spacingLeft=6;overflow=hidden;" parent="cUqwhZdn4gUKvGzjcZQ_-35" vertex="1">
          <mxGeometry x="220" width="80" height="30" as="geometry" />
        </mxCell>
        <mxCell id="cUqwhZdn4gUKvGzjcZQ_-40" value="" style="shape=partialRectangle;collapsible=0;dropTarget=0;pointerEvents=0;fillColor=none;top=0;left=0;bottom=0;right=0;points=[[0,0.5],[1,0.5]];portConstraint=eastwest;" parent="cUqwhZdn4gUKvGzjcZQ_-25" vertex="1">
          <mxGeometry y="120" width="300" height="30" as="geometry" />
        </mxCell>
        <mxCell id="cUqwhZdn4gUKvGzjcZQ_-41" value="discount" style="shape=partialRectangle;connectable=0;fillColor=none;top=0;left=0;bottom=0;right=0;editable=1;overflow=hidden;" parent="cUqwhZdn4gUKvGzjcZQ_-40" vertex="1">
          <mxGeometry width="220" height="30" as="geometry" />
        </mxCell>
        <mxCell id="cUqwhZdn4gUKvGzjcZQ_-42" value="float" style="shape=partialRectangle;connectable=0;fillColor=none;top=0;left=0;bottom=0;right=0;align=left;spacingLeft=6;overflow=hidden;" parent="cUqwhZdn4gUKvGzjcZQ_-40" vertex="1">
          <mxGeometry x="220" width="80" height="30" as="geometry" />
        </mxCell>
        <mxCell id="cUqwhZdn4gUKvGzjcZQ_-46" value="" style="shape=partialRectangle;collapsible=0;dropTarget=0;pointerEvents=0;fillColor=none;top=0;left=0;bottom=0;right=0;points=[[0,0.5],[1,0.5]];portConstraint=eastwest;" parent="cUqwhZdn4gUKvGzjcZQ_-25" vertex="1">
          <mxGeometry y="150" width="300" height="30" as="geometry" />
        </mxCell>
        <mxCell id="cUqwhZdn4gUKvGzjcZQ_-47" value="id&#xa;&#xa;" style="shape=partialRectangle;connectable=0;fillColor=none;top=0;left=0;bottom=0;right=0;editable=1;overflow=hidden;" parent="cUqwhZdn4gUKvGzjcZQ_-46" vertex="1">
          <mxGeometry width="220" height="30" as="geometry" />
        </mxCell>
        <mxCell id="cUqwhZdn4gUKvGzjcZQ_-48" value="string" style="shape=partialRectangle;connectable=0;fillColor=none;top=0;left=0;bottom=0;right=0;align=left;spacingLeft=6;overflow=hidden;" parent="cUqwhZdn4gUKvGzjcZQ_-46" vertex="1">
          <mxGeometry x="220" width="80" height="30" as="geometry" />
        </mxCell>
        <mxCell id="cUqwhZdn4gUKvGzjcZQ_-49" value="" style="shape=partialRectangle;collapsible=0;dropTarget=0;pointerEvents=0;fillColor=none;top=0;left=0;bottom=0;right=0;points=[[0,0.5],[1,0.5]];portConstraint=eastwest;" parent="cUqwhZdn4gUKvGzjcZQ_-25" vertex="1">
          <mxGeometry y="180" width="300" height="30" as="geometry" />
        </mxCell>
        <mxCell id="cUqwhZdn4gUKvGzjcZQ_-50" value="driver_id" style="shape=partialRectangle;connectable=0;fillColor=none;top=0;left=0;bottom=0;right=0;editable=1;overflow=hidden;" parent="cUqwhZdn4gUKvGzjcZQ_-49" vertex="1">
          <mxGeometry width="220" height="30" as="geometry" />
        </mxCell>
        <mxCell id="cUqwhZdn4gUKvGzjcZQ_-51" value="string" style="shape=partialRectangle;connectable=0;fillColor=none;top=0;left=0;bottom=0;right=0;align=left;spacingLeft=6;overflow=hidden;" parent="cUqwhZdn4gUKvGzjcZQ_-49" vertex="1">
          <mxGeometry x="220" width="80" height="30" as="geometry" />
        </mxCell>
        <mxCell id="cUqwhZdn4gUKvGzjcZQ_-52" value="" style="shape=partialRectangle;collapsible=0;dropTarget=0;pointerEvents=0;fillColor=none;top=0;left=0;bottom=0;right=0;points=[[0,0.5],[1,0.5]];portConstraint=eastwest;" parent="cUqwhZdn4gUKvGzjcZQ_-25" vertex="1">
          <mxGeometry y="210" width="300" height="30" as="geometry" />
        </mxCell>
        <mxCell id="cUqwhZdn4gUKvGzjcZQ_-53" value="user_id" style="shape=partialRectangle;connectable=0;fillColor=none;top=0;left=0;bottom=0;right=0;editable=1;overflow=hidden;" parent="cUqwhZdn4gUKvGzjcZQ_-52" vertex="1">
          <mxGeometry width="220" height="30" as="geometry" />
        </mxCell>
        <mxCell id="cUqwhZdn4gUKvGzjcZQ_-54" value="string" style="shape=partialRectangle;connectable=0;fillColor=none;top=0;left=0;bottom=0;right=0;align=left;spacingLeft=6;overflow=hidden;" parent="cUqwhZdn4gUKvGzjcZQ_-52" vertex="1">
          <mxGeometry x="220" width="80" height="30" as="geometry" />
        </mxCell>
        <mxCell id="cUqwhZdn4gUKvGzjcZQ_-55" value="" style="shape=partialRectangle;collapsible=0;dropTarget=0;pointerEvents=0;fillColor=none;top=0;left=0;bottom=0;right=0;points=[[0,0.5],[1,0.5]];portConstraint=eastwest;" parent="cUqwhZdn4gUKvGzjcZQ_-25" vertex="1">
          <mxGeometry y="240" width="300" height="30" as="geometry" />
        </mxCell>
        <mxCell id="cUqwhZdn4gUKvGzjcZQ_-56" value="restaurant_id" style="shape=partialRectangle;connectable=0;fillColor=none;top=0;left=0;bottom=0;right=0;editable=1;overflow=hidden;" parent="cUqwhZdn4gUKvGzjcZQ_-55" vertex="1">
          <mxGeometry width="220" height="30" as="geometry" />
        </mxCell>
        <mxCell id="cUqwhZdn4gUKvGzjcZQ_-57" value="string" style="shape=partialRectangle;connectable=0;fillColor=none;top=0;left=0;bottom=0;right=0;align=left;spacingLeft=6;overflow=hidden;" parent="cUqwhZdn4gUKvGzjcZQ_-55" vertex="1">
          <mxGeometry x="220" width="80" height="30" as="geometry" />
        </mxCell>
        <mxCell id="cUqwhZdn4gUKvGzjcZQ_-58" value="" style="shape=partialRectangle;collapsible=0;dropTarget=0;pointerEvents=0;fillColor=none;top=0;left=0;bottom=0;right=0;points=[[0,0.5],[1,0.5]];portConstraint=eastwest;" parent="cUqwhZdn4gUKvGzjcZQ_-25" vertex="1">
          <mxGeometry y="270" width="300" height="30" as="geometry" />
        </mxCell>
        <mxCell id="cUqwhZdn4gUKvGzjcZQ_-59" value="" style="shape=partialRectangle;connectable=0;fillColor=none;top=0;left=0;bottom=0;right=0;editable=1;overflow=hidden;" parent="cUqwhZdn4gUKvGzjcZQ_-58" vertex="1">
          <mxGeometry width="220" height="30" as="geometry" />
        </mxCell>
        <mxCell id="cUqwhZdn4gUKvGzjcZQ_-60" value="" style="shape=partialRectangle;connectable=0;fillColor=none;top=0;left=0;bottom=0;right=0;align=left;spacingLeft=6;overflow=hidden;" parent="cUqwhZdn4gUKvGzjcZQ_-58" vertex="1">
          <mxGeometry x="220" width="80" height="30" as="geometry" />
        </mxCell>
        <mxCell id="cUqwhZdn4gUKvGzjcZQ_-38" value="" style="shape=partialRectangle;connectable=0;fillColor=none;top=0;left=0;bottom=0;right=0;editable=1;overflow=hidden;" parent="1" vertex="1">
          <mxGeometry x="400" y="210" width="220" height="30" as="geometry" />
        </mxCell>
        <mxCell id="cUqwhZdn4gUKvGzjcZQ_-92" style="edgeStyle=orthogonalEdgeStyle;rounded=0;orthogonalLoop=1;jettySize=auto;html=1;" parent="1" source="cUqwhZdn4gUKvGzjcZQ_-61" target="cUqwhZdn4gUKvGzjcZQ_-89" edge="1">
          <mxGeometry relative="1" as="geometry">
            <Array as="points">
              <mxPoint x="790" y="695" />
              <mxPoint x="790" y="520" />
            </Array>
          </mxGeometry>
        </mxCell>
        <mxCell id="cUqwhZdn4gUKvGzjcZQ_-61" value="restaurant_detail" style="shape=table;startSize=30;container=1;collapsible=1;childLayout=tableLayout;fixedRows=1;rowLines=0;fontStyle=1;align=center;resizeLast=1;" parent="1" vertex="1">
          <mxGeometry x="370" y="524" width="300" height="250" as="geometry">
            <mxRectangle x="400" y="570" width="100" height="30" as="alternateBounds" />
          </mxGeometry>
        </mxCell>
        <mxCell id="cUqwhZdn4gUKvGzjcZQ_-62" value="" style="shape=partialRectangle;collapsible=0;dropTarget=0;pointerEvents=0;fillColor=none;top=0;left=0;bottom=0;right=0;points=[[0,0.5],[1,0.5]];portConstraint=eastwest;" parent="cUqwhZdn4gUKvGzjcZQ_-61" vertex="1">
          <mxGeometry y="30" width="300" height="30" as="geometry" />
        </mxCell>
        <mxCell id="cUqwhZdn4gUKvGzjcZQ_-63" value="id" style="shape=partialRectangle;connectable=0;fillColor=none;top=0;left=0;bottom=0;right=0;fontStyle=0;overflow=hidden;" parent="cUqwhZdn4gUKvGzjcZQ_-62" vertex="1">
          <mxGeometry width="220" height="30" as="geometry" />
        </mxCell>
        <mxCell id="cUqwhZdn4gUKvGzjcZQ_-64" value="string" style="shape=partialRectangle;connectable=0;fillColor=none;top=0;left=0;bottom=0;right=0;align=left;spacingLeft=6;fontStyle=0;overflow=hidden;" parent="cUqwhZdn4gUKvGzjcZQ_-62" vertex="1">
          <mxGeometry x="220" width="80" height="30" as="geometry" />
        </mxCell>
        <mxCell id="cUqwhZdn4gUKvGzjcZQ_-65" value="" style="shape=partialRectangle;collapsible=0;dropTarget=0;pointerEvents=0;fillColor=none;top=0;left=0;bottom=0;right=0;points=[[0,0.5],[1,0.5]];portConstraint=eastwest;" parent="cUqwhZdn4gUKvGzjcZQ_-61" vertex="1">
          <mxGeometry y="60" width="300" height="30" as="geometry" />
        </mxCell>
        <mxCell id="cUqwhZdn4gUKvGzjcZQ_-66" value="restaurant_name" style="shape=partialRectangle;connectable=0;fillColor=none;top=0;left=0;bottom=0;right=0;editable=1;overflow=hidden;" parent="cUqwhZdn4gUKvGzjcZQ_-65" vertex="1">
          <mxGeometry width="220" height="30" as="geometry" />
        </mxCell>
        <mxCell id="cUqwhZdn4gUKvGzjcZQ_-67" value="string" style="shape=partialRectangle;connectable=0;fillColor=none;top=0;left=0;bottom=0;right=0;align=left;spacingLeft=6;overflow=hidden;" parent="cUqwhZdn4gUKvGzjcZQ_-65" vertex="1">
          <mxGeometry x="220" width="80" height="30" as="geometry" />
        </mxCell>
        <mxCell id="cUqwhZdn4gUKvGzjcZQ_-68" value="" style="shape=partialRectangle;collapsible=0;dropTarget=0;pointerEvents=0;fillColor=none;top=0;left=0;bottom=0;right=0;points=[[0,0.5],[1,0.5]];portConstraint=eastwest;" parent="cUqwhZdn4gUKvGzjcZQ_-61" vertex="1">
          <mxGeometry y="90" width="300" height="30" as="geometry" />
        </mxCell>
        <mxCell id="cUqwhZdn4gUKvGzjcZQ_-69" value="category" style="shape=partialRectangle;connectable=0;fillColor=none;top=0;left=0;bottom=0;right=0;editable=1;overflow=hidden;" parent="cUqwhZdn4gUKvGzjcZQ_-68" vertex="1">
          <mxGeometry width="220" height="30" as="geometry" />
        </mxCell>
        <mxCell id="cUqwhZdn4gUKvGzjcZQ_-70" value="string" style="shape=partialRectangle;connectable=0;fillColor=none;top=0;left=0;bottom=0;right=0;align=left;spacingLeft=6;overflow=hidden;" parent="cUqwhZdn4gUKvGzjcZQ_-68" vertex="1">
          <mxGeometry x="220" width="80" height="30" as="geometry" />
        </mxCell>
        <mxCell id="cUqwhZdn4gUKvGzjcZQ_-71" value="" style="shape=partialRectangle;collapsible=0;dropTarget=0;pointerEvents=0;fillColor=none;top=0;left=0;bottom=0;right=0;points=[[0,0.5],[1,0.5]];portConstraint=eastwest;" parent="cUqwhZdn4gUKvGzjcZQ_-61" vertex="1">
          <mxGeometry y="120" width="300" height="30" as="geometry" />
        </mxCell>
        <mxCell id="cUqwhZdn4gUKvGzjcZQ_-72" value="esimated_cooking_time" style="shape=partialRectangle;connectable=0;fillColor=none;top=0;left=0;bottom=0;right=0;editable=1;overflow=hidden;" parent="cUqwhZdn4gUKvGzjcZQ_-71" vertex="1">
          <mxGeometry width="220" height="30" as="geometry" />
        </mxCell>
        <mxCell id="cUqwhZdn4gUKvGzjcZQ_-73" value="float" style="shape=partialRectangle;connectable=0;fillColor=none;top=0;left=0;bottom=0;right=0;align=left;spacingLeft=6;overflow=hidden;" parent="cUqwhZdn4gUKvGzjcZQ_-71" vertex="1">
          <mxGeometry x="220" width="80" height="30" as="geometry" />
        </mxCell>
        <mxCell id="cUqwhZdn4gUKvGzjcZQ_-74" value="" style="shape=partialRectangle;collapsible=0;dropTarget=0;pointerEvents=0;fillColor=none;top=0;left=0;bottom=0;right=0;points=[[0,0.5],[1,0.5]];portConstraint=eastwest;" parent="cUqwhZdn4gUKvGzjcZQ_-61" vertex="1">
          <mxGeometry y="150" width="300" height="30" as="geometry" />
        </mxCell>
        <mxCell id="cUqwhZdn4gUKvGzjcZQ_-75" value="latitude" style="shape=partialRectangle;connectable=0;fillColor=none;top=0;left=0;bottom=0;right=0;editable=1;overflow=hidden;" parent="cUqwhZdn4gUKvGzjcZQ_-74" vertex="1">
          <mxGeometry width="220" height="30" as="geometry" />
        </mxCell>
        <mxCell id="cUqwhZdn4gUKvGzjcZQ_-76" value="float" style="shape=partialRectangle;connectable=0;fillColor=none;top=0;left=0;bottom=0;right=0;align=left;spacingLeft=6;overflow=hidden;" parent="cUqwhZdn4gUKvGzjcZQ_-74" vertex="1">
          <mxGeometry x="220" width="80" height="30" as="geometry" />
        </mxCell>
        <mxCell id="cUqwhZdn4gUKvGzjcZQ_-77" value="" style="shape=partialRectangle;collapsible=0;dropTarget=0;pointerEvents=0;fillColor=none;top=0;left=0;bottom=0;right=0;points=[[0,0.5],[1,0.5]];portConstraint=eastwest;" parent="cUqwhZdn4gUKvGzjcZQ_-61" vertex="1">
          <mxGeometry y="180" width="300" height="30" as="geometry" />
        </mxCell>
        <mxCell id="cUqwhZdn4gUKvGzjcZQ_-78" value="longitude" style="shape=partialRectangle;connectable=0;fillColor=none;top=0;left=0;bottom=0;right=0;editable=1;overflow=hidden;" parent="cUqwhZdn4gUKvGzjcZQ_-77" vertex="1">
          <mxGeometry width="220" height="30" as="geometry" />
        </mxCell>
        <mxCell id="cUqwhZdn4gUKvGzjcZQ_-79" value="float" style="shape=partialRectangle;connectable=0;fillColor=none;top=0;left=0;bottom=0;right=0;align=left;spacingLeft=6;overflow=hidden;" parent="cUqwhZdn4gUKvGzjcZQ_-77" vertex="1">
          <mxGeometry x="220" width="80" height="30" as="geometry" />
        </mxCell>
        <mxCell id="cUqwhZdn4gUKvGzjcZQ_-80" value="" style="shape=partialRectangle;collapsible=0;dropTarget=0;pointerEvents=0;fillColor=none;top=0;left=0;bottom=0;right=0;points=[[0,0.5],[1,0.5]];portConstraint=eastwest;" parent="cUqwhZdn4gUKvGzjcZQ_-61" vertex="1">
          <mxGeometry y="210" width="300" height="30" as="geometry" />
        </mxCell>
        <mxCell id="cUqwhZdn4gUKvGzjcZQ_-81" value="" style="shape=partialRectangle;connectable=0;fillColor=none;top=0;left=0;bottom=0;right=0;editable=1;overflow=hidden;" parent="cUqwhZdn4gUKvGzjcZQ_-80" vertex="1">
          <mxGeometry width="220" height="30" as="geometry" />
        </mxCell>
        <mxCell id="cUqwhZdn4gUKvGzjcZQ_-82" value="" style="shape=partialRectangle;connectable=0;fillColor=none;top=0;left=0;bottom=0;right=0;align=left;spacingLeft=6;overflow=hidden;" parent="cUqwhZdn4gUKvGzjcZQ_-80" vertex="1">
          <mxGeometry x="220" width="80" height="30" as="geometry" />
        </mxCell>
        <mxCell id="cUqwhZdn4gUKvGzjcZQ_-93" style="edgeStyle=orthogonalEdgeStyle;rounded=0;orthogonalLoop=1;jettySize=auto;html=1;" parent="1" source="cUqwhZdn4gUKvGzjcZQ_-89" target="gmRt4qrbImgZVtuVfAIw-3" edge="1">
          <mxGeometry relative="1" as="geometry">
            <mxPoint x="1590" y="520" as="targetPoint" />
            <Array as="points">
              <mxPoint x="1366" y="520" />
              <mxPoint x="1366" y="575" />
            </Array>
          </mxGeometry>
        </mxCell>
        <mxCell id="cUqwhZdn4gUKvGzjcZQ_-89" value="Postgres DB" style="aspect=fixed;html=1;points=[];align=center;image;fontSize=12;image=img/lib/azure2/databases/Azure_Database_PostgreSQL_Server.svg;" parent="1" vertex="1">
          <mxGeometry x="1082" y="438" width="120" height="160" as="geometry" />
        </mxCell>
        <mxCell id="gmRt4qrbImgZVtuVfAIw-4" style="edgeStyle=orthogonalEdgeStyle;rounded=0;orthogonalLoop=1;jettySize=auto;html=1;" parent="1" source="cUqwhZdn4gUKvGzjcZQ_-94" target="gmRt4qrbImgZVtuVfAIw-3" edge="1">
          <mxGeometry relative="1" as="geometry" />
        </mxCell>
        <mxCell id="uphKgELG2MX2Bax76Fz_-3" style="edgeStyle=orthogonalEdgeStyle;rounded=0;orthogonalLoop=1;jettySize=auto;html=1;" edge="1" parent="1" source="cUqwhZdn4gUKvGzjcZQ_-94" target="uphKgELG2MX2Bax76Fz_-6">
          <mxGeometry relative="1" as="geometry">
            <mxPoint x="2140" y="401" as="targetPoint" />
          </mxGeometry>
        </mxCell>
        <mxCell id="cUqwhZdn4gUKvGzjcZQ_-94" value="Hive" style="rounded=1;whiteSpace=wrap;html=1;" parent="1" vertex="1">
          <mxGeometry x="1592.5" y="371" width="120" height="60" as="geometry" />
        </mxCell>
        <mxCell id="gmRt4qrbImgZVtuVfAIw-2" value="HDFS" style="text;html=1;align=center;verticalAlign=middle;resizable=0;points=[];autosize=1;strokeColor=none;" parent="1" vertex="1">
          <mxGeometry x="1478" y="317" width="50" height="20" as="geometry" />
        </mxCell>
        <mxCell id="gmRt4qrbImgZVtuVfAIw-3" value="parquet" style="whiteSpace=wrap;html=1;shape=mxgraph.basic.document" parent="1" vertex="1">
          <mxGeometry x="1614.5" y="540" width="76" height="70" as="geometry" />
        </mxCell>
        <mxCell id="gmRt4qrbImgZVtuVfAIw-5" value="extract_data_pg_to_hdfs.py" style="shape=image;html=1;verticalAlign=top;verticalLabelPosition=bottom;labelBackgroundColor=#ffffff;imageAspect=0;aspect=fixed;image=https://cdn4.iconfinder.com/data/icons/logos-and-brands/512/267_Python_logo-128.png" parent="1" vertex="1">
          <mxGeometry x="1311" y="382" width="99" height="99" as="geometry" />
        </mxCell>
        <mxCell id="gmRt4qrbImgZVtuVfAIw-6" value="import_csv_to_pg.py" style="shape=image;html=1;verticalAlign=top;verticalLabelPosition=bottom;labelBackgroundColor=#ffffff;imageAspect=0;aspect=fixed;image=https://cdn4.iconfinder.com/data/icons/logos-and-brands/512/267_Python_logo-128.png" parent="1" vertex="1">
          <mxGeometry x="873" y="388" width="99" height="99" as="geometry" />
        </mxCell>
        <mxCell id="uphKgELG2MX2Bax76Fz_-2" value="create_pg_table.py" style="shape=image;html=1;verticalAlign=top;verticalLabelPosition=bottom;labelBackgroundColor=#ffffff;imageAspect=0;aspect=fixed;image=https://cdn4.iconfinder.com/data/icons/logos-and-brands/512/267_Python_logo-128.png" vertex="1" parent="1">
          <mxGeometry x="873" y="221" width="99" height="99" as="geometry" />
        </mxCell>
        <mxCell id="uphKgELG2MX2Bax76Fz_-4" value="&lt;font style=&quot;font-size: 18px&quot;&gt;discount.csv&lt;/font&gt;" style="shape=image;html=1;verticalAlign=top;verticalLabelPosition=bottom;labelBackgroundColor=#ffffff;imageAspect=0;aspect=fixed;image=https://cdn3.iconfinder.com/data/icons/file-extension-vol-1/48/csv_file_database_extension_data-128.png" vertex="1" parent="1">
          <mxGeometry x="1897" y="280" width="73" height="73" as="geometry" />
        </mxCell>
        <mxCell id="uphKgELG2MX2Bax76Fz_-5" value="&lt;font style=&quot;font-size: 18px&quot;&gt;cooking_bin.csv&lt;/font&gt;" style="shape=image;html=1;verticalAlign=top;verticalLabelPosition=bottom;labelBackgroundColor=#ffffff;imageAspect=0;aspect=fixed;image=https://cdn3.iconfinder.com/data/icons/file-extension-vol-1/48/csv_file_database_extension_data-128.png" vertex="1" parent="1">
          <mxGeometry x="2020" y="280" width="73" height="73" as="geometry" />
        </mxCell>
        <mxCell id="uphKgELG2MX2Bax76Fz_-6" value="Local Machine" style="whiteSpace=wrap;html=1;aspect=fixed;" vertex="1" parent="1">
          <mxGeometry x="2152" y="346.5" width="109" height="109" as="geometry" />
        </mxCell>
      </root>
    </mxGraphModel>
  </diagram>
</mxfile>
